:SAMPLES-PER-SECOND 30
:FRAME-RANGE 1-2775
:FULLY-SPECIFIED
:DEGREES
1735
root  -37.3416 38.684 -33.9829 7.8911 -51.1167 -8.47649
RightUpLeg  -13.3383 -10.8733 0.434853
RightLeg  21.9701 -5.1214 0.709332
RightFoot  -8.81642 -0.234268 7.89451
RightToes  -5.28216e-011 1.2921e-014 -6.02303e-014
Spine  9.36757 -0.525342 12.1936
Spine1  -1.56266 1.36033 -0.867704
HEad  0.808985 40.2032 -9.79116
LeftShoulder1  1.22125 0.27393 -31.7516
LeftArm  10.3328 9.44427 -33.7124
LeftForeArm  5.01092 1.83362 -19.1279
LeftHand  0.331646 -0.961907 -5.99579
RightShoulder  4.41007 4.43344 48.7099
RightArm  26.5496 -5.20164 13.5854
RightForeArm  5.94427 2.52667 18.5448
RightHand  0.488195 6.26336 4.51154
LeftUpLeg  -14.2606 5.32728 8.14751
LeftLeg  60.6017 1.00889 2.50727
LeftFoot  4.93316 0.919045 -6.63333
LeftToes  -2.158e-010 -1.26819e-010 -1.05346e-011
1736
root  -38.4993 38.9578 -33.3959 6.54482 -50.0638 -6.78337
RightUpLeg  -9.80125 -9.68282 -0.918763
RightLeg  19.7089 -6.91436 0.953649
RightFoot  -9.72776 -0.186022 8.49232
RightToes  -5.28216e-011 1.2921e-014 -6.02303e-014
Spine  9.58157 0.185732 12.1785
Spine1  -2.50221 2.16872 -2.50369
HEad  0.0683458 40.8803 -9.87816
LeftShoulder1  1.17853 0.415859 -32.1043
LeftArm  15.487 15.1146 -30.6716
LeftForeArm  1.44584 0.28771 -19.4537
LeftHand  0.384374 -0.96414 -6.95911
RightShoulder  4.43088 4.60586 47.8914
RightArm  27.4539 -4.96885 13.7971
RightForeArm  4.85326 4.53401 17.9732
RightHand  0.452645 6.13625 4.21181
LeftUpLeg  -17.9494 7.27754 6.16044
LeftLeg  58.4262 0.488988 1.38876
LeftFoot  2.438 0.713143 -6.02196
LeftToes  -2.158e-010 -1.26819e-010 -1.05346e-011
1737
root  -39.6335 39.213 -32.775 5.29965 -48.9272 -5.08955
RightUpLeg  -6.08469 -9.14312 -2.07478
RightLeg  16.7614 -8.0865 1.29731
RightFoot  -10.2231 -0.156584 8.89679
RightToes  -5.28216e-011 1.2921e-014 -6.02303e-014
Spine  9.29982 0.976284 11.7804
Spine1  -2.79263 2.91179 -4.00045
HEad  -1.08676 41.9378 -10.2202
LeftShoulder1  1.10564 0.579559 -31.7455
LeftArm  20.4012 20.4853 -28.104
LeftForeArm  -0.905701 -1.98568 -19.3786
LeftHand  0.475706 -1.45915 -7.95284
RightShoulder  4.35028 4.6318 46.8534
RightArm  29.973 -4.81843 13.9542
RightForeArm  1.06346 7.94078 16.7897
RightHand  0.431042 5.87715 4.1019
LeftUpLeg  -20.8549 9.39131 3.6763
LeftLeg  53.4461 -0.383409 -0.0908737
LeftFoot  -0.195865 0.545592 -5.57844
LeftToes  -2.158e-010 -1.26819e-010 -1.05346e-011
1738
root  -40.7164 39.4044 -32.1462 4.39272 -47.5197 -3.61147
RightUpLeg  -2.48791 -9.5258 -3.06158
RightLeg  13.6966 -9.27948 1.70987
RightFoot  -10.5696 -0.135468 9.40883
RightToes  -5.28216e-011 1.2921e-014 -6.02303e-014
Spine  9.12657 1.6682 10.7472
Spine1  -3.36926 3.36967 -4.74877
HEad  -2.50544 43.9923 -11.0128
LeftShoulder1  0.993764 0.82702 -31.0543
LeftArm  20.7508 25.7085 -25.7781
LeftForeArm  -0.281216 -3.62509 -18.8775
LeftHand  0.512673 -1.62045 -8.36487
RightShoulder  4.29399 4.70907 45.7834
RightArm  33.857 -4.89329 13.8487
RightForeArm  -3.86842 11.8553 14.8471
RightHand  0.400081 5.64588 3.87693
LeftUpLeg  -23.1128 11.666 0.811648
LeftLeg  45.9371 -0.285075 0.0878186
LeftFoot  -1.92683 0.488924 -5.79528
LeftToes  -2.158e-010 -1.26819e-010 -1.05346e-011
1739
root  -41.7342 39.5561 -31.5116 3.83084 -45.8288 -2.40817
RightUpLeg  1.14699 -9.45909 -3.70179
RightLeg  10.0351 -10.5903 2.17913
RightFoot  -10.597 -0.134974 9.64812
RightToes  -5.28216e-011 1.2921e-014 -6.02303e-014
Spine  8.87522 2.22513 9.41721
Spine1  -3.71734 3.68045 -5.2048
HEad  -4.22616 46.6886 -11.8583
LeftShoulder1  0.86456 1.11675 -30.1345
LeftArm  18.9385 30.1973 -23.8571
LeftForeArm  -0.13861 -4.72577 -18.3591
LeftHand  0.547714 -1.7687 -8.74401
RightShoulder  4.204 4.71145 44.7749
RightArm  39.2766 -4.95038 13.583
RightForeArm  -10.6331 15.9763 12.0923
RightHand  0.373765 5.4599 3.67386
LeftUpLeg  -24.4333 14.4209 -2.31003
LeftLeg  36.0298 -0.167067 0.226231
LeftFoot  -2.8744 0.430111 -5.57573
LeftToes  -2.158e-010 -1.26819e-010 -1.05346e-011
1740
root  -42.6848 39.6312 -30.843 3.71454 -43.9255 -1.70174
RightUpLeg  4.72953 -9.02976 -3.86875
RightLeg  6.17563 -12.461 2.72306
RightFoot  -10.5458 -0.142195 10.11
RightToes  -5.28216e-011 1.2921e-014 -6.02303e-014
Spine  8.64748 2.62106 8.36622
Spine1  -3.9499 3.95335 -5.64035
HEad  -6.06244 49.3086 -12.742
LeftShoulder1  0.750326 1.37629 -29.1647
LeftArm  15.9343 33.5097 -22.4572
LeftForeArm  0.758298 -4.78052 -18.0756
LeftHand  0.53995 -1.76744 -8.62002
RightShoulder  4.06146 4.56868 43.9886
RightArm  34.143 -4.06466 13.4662
RightForeArm  -6.38147 15.0733 12.3848
RightHand  0.39019 6.02083 3.62779
LeftUpLeg  -24.7749 18.1797 -5.92676
LeftLeg  23.8196 -0.341162 0.164226
LeftFoot  -2.9219 0.445303 -5.80947
LeftToes  -2.158e-010 -1.26819e-010 -1.05346e-011
1741
root  -43.592 39.5868 -30.1061 3.91077 -41.857 -1.56941
RightUpLeg  8.26564 -8.55674 -3.61708
RightLeg  2.71844 -14.5409 3.47665
RightFoot  -10.7492 -0.12932 10.8225
RightToes  -5.28216e-011 1.2921e-014 -6.02303e-014
Spine  8.24479 2.88076 7.83428
Spine1  -3.7372 4.23284 -6.02741
HEad  -7.95414 51.6385 -13.645
LeftShoulder1  0.668932 1.57545 -28.5713
LeftArm  12.7558 35.4181 -21.1687
LeftForeArm  2.03315 -4.27653 -17.9288
LeftHand  0.555102 -1.87212 -8.72716
RightShoulder  4.01197 4.55346 43.5109
RightArm  40.6829 -4.55655 12.7642
RightForeArm  -15.7152 19.1465 9.26528
RightHand  0.372352 5.28112 3.73103
LeftUpLeg  -22.9333 15.5094 -5.8002
LeftLeg  10.4095 6.24358 -2.46701
LeftFoot  -1.72656 0.584874 -6.82706
LeftToes  -2.158e-010 -1.26819e-010 -1.05346e-011
1742
root  -44.496 39.4099 -29.273 4.24426 -39.9287 -1.77695
RightUpLeg  11.15 -8.22672 -3.17181
RightLeg  1.04286 -15.9959 3.97701
RightFoot  -11.6208 -0.049773 12.0286
RightToes  -5.28216e-011 1.2921e-014 -6.02303e-014
Spine  7.96263 3.07257 7.64036
Spine1  -3.6402 4.54712 -6.39327
HEad  -9.58215 53.5619 -14.1843
LeftShoulder1  0.611297 1.72463 -28.2304
LeftArm  9.85175 36.348 -20.0747
LeftForeArm  3.27686 -3.67461 -17.8096
LeftHand  0.580226 -2.02654 -8.92284
RightShoulder  4.10742 4.76738 43.385
RightArm  37.9955 -4.40998 12.3443
RightForeArm  -14.7464 18.5241 9.76498
RightHand  0.372815 5.33856 3.71255
LeftUpLeg  -20.7157 4.41955 -2.23733
LeftLeg  -1.86509 20.2271 -6.96903
LeftFoot  -2.22021 0.624149 -7.65128
LeftToes  -2.158e-010 -1.26819e-010 -1.05346e-011
1743
root  -45.4141 39.1404 -28.3277 4.24405 -38.0662 -2.13136
RightUpLeg  13.935 -8.2186 -2.84485
RightLeg  0.927188 -16.7962 4.23466
RightFoot  -12.9217 0.100124 13.5894
RightToes  -5.28216e-011 1.2921e-014 -6.02303e-014
Spine  7.81056 3.18526 7.58693
Spine1  -3.47908 4.76772 -6.72979
HEad  -11.4414 55.0074 -14.7813
LeftShoulder1  0.587944 1.79107 -28.198
LeftArm  8.85829 36.1418 -19.2362
LeftForeArm  3.13382 -3.39429 -17.7978
LeftHand  0.604309 -2.0672 -9.24402
RightShoulder  4.3334 5.1513 43.7573
RightArm  32.157 -3.93474 11.9793
RightForeArm  -10.1979 15.9402 11.7769
RightHand  0.37539 5.41493 3.70927
LeftUpLeg  -19.9929 1.54589 -3.17625
LeftLeg  -7.90817 25.3252 -7.03744
LeftFoot  -2.80622 0.587312 -7.63847
LeftToes  -2.158e-010 -1.26819e-010 -1.05346e-011
1744
root  -46.4049 38.7755 -27.2373 3.93538 -35.947 -2.5623
RightUpLeg  16.7508 -8.62583 -2.6901
RightLeg  2.26876 -17.1441 4.32922
RightFoot  -14.4158 0.328126 15.8007
RightToes  -5.28216e-011 1.2921e-014 -6.02303e-014
Spine  7.38476 3.31609 7.23231
Spine1  -3.13241 4.84804 -6.59637
HEad  -13.2491 55.9709 -15.0925
LeftShoulder1  0.667098 1.58694 -28.6858
LeftArm  9.45189 34.4988 -18.1165
LeftForeArm  2.3573 -3.09224 -17.9525
LeftHand  0.661726 -2.35603 -9.73
RightShoulder  4.57652 5.46953 44.6107
RightArm  26.4918 -3.70426 11.6305
RightForeArm  -5.79752 12.9587 13.7413
RightHand  0.367721 5.24331 3.6962
LeftUpLeg  -19.9567 1.43509 -4.01182
LeftLeg  -6.2546 27.8512 -6.82911
LeftFoot  -3.3338 0.544113 -7.48204
LeftToes  -2.158e-010 -1.26819e-010 -1.05346e-011
